<?xml version="1.0" encoding="UTF-8" standalone="no"?><svg xmlns:svg="http://www.w3.org/2000/svg" xmlns="http://www.w3.org/2000/svg" xmlns:xlink="http://www.w3.org/1999/xlink" version="1.0" width="64px" height="64px" viewBox="0 0 128 128" xml:space="preserve"><rect x="0" y="0" width="100%" height="100%" fill="#FFFFFF" /><g><path d="M97.63 8.23a7.38 7.38 0 0 1 2.7 10.07L89.2 37.57a7.38 7.38 0 1 1-12.77-7.37l11.12-19.27a7.38 7.38 0 0 1 10.08-2.7z" fill="#70b5f9"/><path d="M97.63 8.23a7.38 7.38 0 0 1 2.7 10.07L89.2 37.57a7.38 7.38 0 1 1-12.77-7.37l11.12-19.27a7.38 7.38 0 0 1 10.08-2.7z" fill="#f0f7fe" transform="rotate(30 64 64)"/><path d="M97.63 8.23a7.38 7.38 0 0 1 2.7 10.07L89.2 37.57a7.38 7.38 0 1 1-12.77-7.37l11.12-19.27a7.38 7.38 0 0 1 10.08-2.7z" fill="#f0f7fe" transform="rotate(60 64 64)"/><path d="M97.63 8.23a7.38 7.38 0 0 1 2.7 10.07L89.2 37.57a7.38 7.38 0 1 1-12.77-7.37l11.12-19.27a7.38 7.38 0 0 1 10.08-2.7z" fill="#f0f7fe" transform="rotate(90 64 64)"/><path d="M97.63 8.23a7.38 7.38 0 0 1 2.7 10.07L89.2 37.57a7.38 7.38 0 1 1-12.77-7.37l11.12-19.27a7.38 7.38 0 0 1 10.08-2.7z" fill="#e4f1fe" transform="rotate(120 64 64)"/><path d="M97.63 8.23a7.38 7.38 0 0 1 2.7 10.07L89.2 37.57a7.38 7.38 0 1 1-12.77-7.37l11.12-19.27a7.38 7.38 0 0 1 10.08-2.7z" fill="#d7eafd" transform="rotate(150 64 64)"/><path d="M97.63 8.23a7.38 7.38 0 0 1 2.7 10.07L89.2 37.57a7.38 7.38 0 1 1-12.77-7.37l11.12-19.27a7.38 7.38 0 0 1 10.08-2.7z" fill="#c9e3fd" transform="rotate(180 64 64)"/><path d="M97.63 8.23a7.38 7.38 0 0 1 2.7 10.07L89.2 37.57a7.38 7.38 0 1 1-12.77-7.37l11.12-19.27a7.38 7.38 0 0 1 10.08-2.7z" fill="#bdddfc" transform="rotate(210 64 64)"/><path d="M97.63 8.23a7.38 7.38 0 0 1 2.7 10.07L89.2 37.57a7.38 7.38 0 1 1-12.77-7.37l11.12-19.27a7.38 7.38 0 0 1 10.08-2.7z" fill="#b0d6fc" transform="rotate(240 64 64)"/><path d="M97.63 8.23a7.38 7.38 0 0 1 2.7 10.07L89.2 37.57a7.38 7.38 0 1 1-12.77-7.37l11.12-19.27a7.38 7.38 0 0 1 10.08-2.7z" fill="#a4d0fb" transform="rotate(270 64 64)"/><path d="M97.63 8.23a7.38 7.38 0 0 1 2.7 10.07L89.2 37.57a7.38 7.38 0 1 1-12.77-7.37l11.12-19.27a7.38 7.38 0 0 1 10.08-2.7z" fill="#96c9fb" transform="rotate(300 64 64)"/><path d="M97.63 8.23a7.38 7.38 0 0 1 2.7 10.07L89.2 37.57a7.38 7.38 0 1 1-12.77-7.37l11.12-19.27a7.38 7.38 0 0 1 10.08-2.7z" fill="#8ac2fa" transform="rotate(330 64 64)"/><animateTransform attributeName="transform" type="rotate" values="0 64 64;30 64 64;60 64 64;90 64 64;120 64 64;150 64 64;180 64 64;210 64 64;240 64 64;270 64 64;300 64 64;330 64 64" calcMode="discrete" dur="1080ms" repeatCount="indefinite"></animateTransform></g></svg>